<svg width="506" height="506" viewBox="0 0 506 506" fill="none" xmlns="http://www.w3.org/2000/svg">
<rect width="506" height="506" fill="#030303"/>
<path fill-rule="evenodd" clip-rule="evenodd" d="M250.365 259.592C250.196 259.003 250.073 258.475 249.952 257.955C249.8 257.306 249.652 256.67 249.422 255.948C250.374 254.183 251.486 252.587 252.689 250.861L252.689 250.861C253.04 250.357 253.399 249.841 253.765 249.307C254.746 248.675 255.696 247.98 256.638 247.291C260.851 244.207 264.918 241.23 271.063 244.417C271.749 244.773 272.804 244.489 274.064 244.149C275.771 243.689 277.856 243.127 279.915 243.92C278.131 246.523 276.48 248.93 274.631 251.695C274.658 251.923 274.669 252.142 274.667 252.351C274.493 252.312 274.313 252.278 274.125 252.25C273.628 253.124 273.06 253.937 272.494 254.747C271.087 256.762 269.691 258.761 269.429 261.638C269.813 261.363 270.145 261.142 270.435 260.95C270.963 260.6 271.352 260.342 271.665 260.011C273.587 257.98 275.459 255.903 277 253.689C277.094 253.656 277.189 253.624 277.287 253.595C277.692 253.441 278.054 253.211 278.393 252.995C279.169 252.502 279.828 252.083 280.631 252.818C281.652 253.752 281.176 254.84 280.482 255.853C277.884 259.647 274.642 262.735 270.639 265.017C268.572 266.196 266.343 266.283 265.098 264.244C263.724 261.991 262.845 262.244 260.881 263.529C255.033 267.354 253.678 266.78 250.365 259.592ZM256.319 258.534C257.975 253.726 260.33 249.967 264.413 247.545C265.161 247.102 266.228 246.705 266.992 246.899C268.103 247.18 267.916 248.352 267.674 249.274C266.258 254.691 262.796 258.584 258.044 261.195C255.779 262.44 255.61 260.698 256.319 258.534Z" fill="#EFEFEF"/>
<path fill-rule="evenodd" clip-rule="evenodd" d="M29.1438 261.781C29.2006 263.733 29.26 265.777 31.4402 267.108C34.0775 265.04 33.9615 262.408 33.8511 259.904L33.8511 259.904C33.8383 259.614 33.8256 259.325 33.8173 259.039C33.3149 241.821 36.2593 225.112 41.4339 208.795C45.5691 195.756 51.6491 183.569 59.0862 172.087C59.193 171.922 59.3004 171.75 59.4095 171.575C60.4964 169.838 61.7607 167.816 64.3606 169.438C65.495 170.146 66.6189 170.87 67.743 171.595C69.7941 172.917 71.8458 174.239 73.9628 175.461C75.5766 176.393 75.4309 177.983 75.0528 179.5C74.6492 181.12 74.3007 182.752 73.9523 184.384C72.9251 189.196 71.8987 194.004 69.4622 198.462C67.0206 202.929 65.2219 207.777 64.01 212.748C53.4519 256.055 61.9119 295.143 89.9445 329.96C92.813 333.523 96.0151 336.778 99.2695 340.086L99.2697 340.086L99.2699 340.087L99.2701 340.087L99.2703 340.087L99.2705 340.087L99.2706 340.087L99.2708 340.087L99.271 340.088L99.2712 340.088L99.2714 340.088C101.861 342.721 104.484 345.387 106.998 348.269C105.46 348.667 104.018 348.828 102.652 348.981C100.79 349.188 99.0712 349.38 97.449 350.135C93.2439 352.092 90.099 354.882 89.6721 359.768C89.2284 364.844 91.7536 368.43 95.8661 371.063C97.1028 371.855 98.4766 372.351 99.8518 372.848C100.08 372.931 100.309 373.013 100.537 373.097C109.905 376.547 118.866 374.598 127.512 370.724C132.324 368.569 136.384 368.906 140.797 371.786C148.745 376.974 157.539 380.569 166.318 384.079C203.486 398.94 242.036 402.731 281.616 398.393C309.196 395.37 335.289 387.58 359.791 374.541C362.268 373.223 364.808 373.026 367.49 373.464C371.002 374.038 374.292 373.408 377.246 371.415C385.475 365.864 392.855 359.319 398.159 350.905C400.814 346.693 403.869 342.995 407.206 339.369C439.097 304.725 453.063 264.81 442.439 217.851C441.495 213.677 442.112 210.684 445.475 207.844C449.059 204.819 452.732 201.696 454.769 197.274C455.677 195.305 456.041 193.026 454.154 191.511C452.006 189.785 449.892 190.804 448.076 192.494C447.001 193.495 446.062 194.63 445.096 195.799L445.096 195.799C443.644 197.554 442.13 199.384 439.996 200.952C440.846 199.189 441.823 197.753 442.744 196.399L442.745 196.398L442.745 196.398C443.497 195.292 444.212 194.241 444.789 193.113C445.505 191.715 446.431 190.428 447.364 189.133L447.364 189.133C449.308 186.433 451.278 183.696 451.418 179.841C450.91 178.908 450.464 178.508 449.498 178.059C447.604 177.505 445.733 177.556 443.91 177.605C441.638 177.667 439.439 177.726 437.359 176.612C434.726 175.202 431.879 175.012 429.1 175.97C425.805 177.107 423.693 175.771 421.896 173.186C421.54 172.673 421.184 172.158 420.828 171.642L420.828 171.642C417.953 167.48 415.061 163.293 411.471 159.77C407.799 156.166 406.967 153.129 409.846 148.48C412.568 144.084 410.568 141.454 405.238 141.262L405.086 141.257C403.414 141.196 401.6 141.129 400.267 142.078C396.687 144.626 394.274 143.024 391.341 140.645C363.106 117.743 330.77 104.145 295.062 97.7974C277.698 94.7107 260.298 94.6378 242.81 94.5645L242.537 94.5634C226.713 94.497 211.298 97.3146 196.014 100.793C169.722 106.777 145.598 117.872 123.507 133.287C118.038 137.102 113.062 139.387 107.573 133.543C106.468 132.366 104.753 131.732 103.19 131.154L103.109 131.124C100.367 130.109 99.4488 128.109 99.296 125.025C98.2109 124.013 97.3556 124.118 96.1133 124.692C92.1789 128.247 88.0381 129.156 83.0199 129.338C69.2451 129.838 57.6134 142.495 59.7026 154.605C60.4892 159.164 59.5844 162.359 57.0619 165.967C37.0664 194.565 27.7877 226.372 29.1266 261.247C29.1334 261.424 29.1386 261.602 29.1438 261.781ZM78.2197 142.155C78.2385 142.17 78.3234 142.2 78.5872 142.197C79.4305 141.638 80.218 141.078 80.8966 140.445C81.0829 140.328 81.2676 140.209 81.4525 140.09L81.453 140.089C82.3532 139.51 83.2568 138.927 84.3544 138.581C90.5582 133.926 103.929 136.207 108.141 142.429C109.202 143.997 108.339 144.559 107.444 145.142C107.295 145.239 107.145 145.337 107.002 145.44C98.7585 151.411 90.582 157.452 84.7184 166.001C83.7209 167.455 82.3229 167.751 80.7437 167.344C79.6534 167.062 78.5862 166.662 77.5425 166.233C66.0404 161.505 65.5497 159.159 73.8028 150.099C74.2819 149.573 74.8058 149.08 75.3305 148.587C76.9865 147.029 78.6514 145.463 78.9465 142.819C78.7927 142.871 78.6567 142.934 78.5266 142.994C78.1767 143.156 77.8706 143.297 77.3799 143.143C77.3599 142.958 77.3515 142.806 77.3593 142.671C77.6184 142.444 77.8882 142.256 78.2197 142.155ZM77.7544 141.783C77.4887 142.122 77.3779 142.348 77.3593 142.671C77.2241 142.789 77.0919 142.918 76.9554 143.051C76.5735 143.424 76.1578 143.83 75.5502 144.125C72.6643 146.492 70.3657 148.89 68.5058 151.72L68.4499 151.805C67.8908 152.659 67.137 153.81 65.8285 153.176C64.9815 152.766 65.0496 151.83 65.1115 150.979L65.1115 150.979C65.1195 150.869 65.1274 150.761 65.1332 150.655C65.5789 142.541 74.5326 135.007 83.1871 135.969C82.9644 137.962 82.1022 139.319 80.8966 140.445C79.9579 141.034 78.9809 141.568 77.7544 141.783ZM194.917 291.238C193.708 288.647 192.472 288.812 190.894 291.492C190.147 292.909 189.335 294.249 188.522 295.59C186.722 298.56 184.918 301.535 183.814 305.361C184.749 304.924 185.669 304.504 186.574 304.091C191.807 301.704 196.517 299.555 200.579 295.698C197.421 295.418 195.986 293.527 194.917 291.238ZM103.438 365.41C103.671 365.498 103.903 365.586 104.132 365.675C112.226 368.013 118.963 365.208 125.737 362.388L125.944 362.302C119.264 359.723 112.753 357.244 105.7 357.388C105.501 357.392 105.299 357.395 105.092 357.397L105.085 357.397C102.42 357.432 99.2223 357.474 98.5972 360.563C98.0313 363.36 100.785 364.404 103.438 365.41ZM212.776 359.281C215.08 348.865 220.257 340.758 228.354 334.6C230.412 333.035 232.925 331.265 235.587 332.802C237.99 334.189 237.48 336.862 237.067 339.032L237.066 339.033L237.043 339.158C237.017 339.294 236.991 339.428 236.968 339.559C234.92 350.821 228.802 359.321 218.516 364.416C213.267 367.017 212.162 365.921 212.776 359.281ZM352.179 344.059C354.821 340.078 357.778 336.934 361.456 334.58C361.63 334.468 361.806 334.352 361.984 334.232C362.1 334.155 362.216 334.077 362.333 333.997L362.335 333.996C364.438 332.577 366.822 330.968 369.026 332.936C371.045 334.738 370.037 337.836 369.037 340.362C365.93 348.213 360.55 354.401 354.596 360.169C354.083 360.665 353.503 361.093 352.923 361.52L352.919 361.523L352.919 361.523L352.919 361.523L352.918 361.523C352.743 361.653 352.567 361.782 352.394 361.913C352.081 362.15 351.751 362.411 351.41 362.681C349.343 364.317 346.864 366.278 345.271 365.068C343.197 363.492 344.119 359.55 345.285 356.714C345.395 356.448 345.504 356.181 345.614 355.914L345.62 355.897L345.627 355.88L345.627 355.88C347.292 351.814 348.969 347.72 352.179 344.059ZM237.897 254.088C238.033 253.927 238.169 253.766 238.307 253.602L238.377 253.485C238.947 252.532 239.318 251.912 239.624 251.262C240.364 249.692 241.048 247.605 239.596 246.64C238.318 245.792 236.997 246.903 235.809 247.901C235.614 248.065 235.422 248.226 235.235 248.375C232.187 250.799 230.545 254.128 229.072 257.597C228.525 258.885 228.153 260.614 229.088 261.281C230.485 262.279 231.872 260.929 232.882 259.851C234.415 258.214 235.864 256.497 237.491 254.569L237.897 254.088ZM215.023 269.33L215.023 269.33C216.736 268.779 218.303 268.275 219.431 269.606C220.992 271.449 220.568 273.871 219.617 276.045C216.171 283.919 209.722 289.035 202.744 294.571L202.744 294.571L202.61 294.677C202.437 292.001 201.715 289.871 200.285 288.288C195.593 283.09 198.387 279.703 202.853 276.645C203.815 275.986 204.743 275.272 205.679 274.553L205.679 274.553C208.061 272.721 210.495 270.85 213.688 269.731C214.139 269.615 214.584 269.471 215.02 269.331L215.021 269.331L215.021 269.331L215.021 269.331L215.022 269.331L215.022 269.331L215.022 269.331L215.022 269.33L215.023 269.33ZM120.715 151.595C122.095 153.13 123.429 155.326 122.136 158.109C118.812 159.171 118.114 157.311 117.427 155.479C117.155 154.755 116.885 154.036 116.456 153.503C116.194 153.178 115.967 152.763 115.741 152.349C115.022 151.033 114.314 149.737 112.539 151.445C111.491 152.455 110.425 153.451 109.358 154.448L109.358 154.449C105.26 158.281 101.141 162.132 97.8753 166.826C99.4522 167.965 100.923 167.721 102.215 167.507C102.322 167.489 102.427 167.472 102.532 167.455C117.068 165.155 129.845 159.113 140.569 148.983C142.027 147.606 143.236 145.715 143.928 143.83C145.144 140.518 144.855 137.847 140.155 137.89C133.929 137.947 128.304 139.895 123.06 142.988C119.691 144.975 116.795 147.231 120.715 151.595ZM151.661 189.72C148.808 196.298 144.572 201.189 139.056 204.994C138.857 205.131 138.658 205.288 138.457 205.447L138.457 205.447C137.611 206.116 136.722 206.819 135.606 206.214C133.925 205.301 134.357 203.354 134.751 202.135C136.982 195.22 140.713 189.203 146.634 184.829C148.054 183.781 150.152 182.296 151.783 183.609C153.616 185.086 152.709 187.376 151.661 189.72ZM116.769 196.129C119.978 192.194 122.561 187.631 119.702 181.789C117.531 179.895 115.589 180.205 113.517 180.948C106.952 183.303 98.2343 197.315 98.8236 204.313C99.0408 206.893 100.009 206.936 102.08 206.298C108.075 204.451 112.935 200.832 116.769 196.129ZM421.075 205.269C417.645 206.843 415.218 207.03 416.605 202.515C418.026 197.889 419.78 193.357 423.37 189.754C429.655 198.03 429.654 198.04 421.075 205.269ZM433.649 183.682C431.913 181.951 428.571 183.263 428.111 187.244C429.245 189.538 430.269 191.396 431.676 193.95L431.678 193.953L431.679 193.954L431.679 193.955C432.084 193.072 432.555 192.223 433.008 191.404L433.009 191.403C434.603 188.526 435.993 186.018 433.649 183.682ZM74.4931 205.737C73.7923 207.806 73.3135 209.537 72.9209 211.479C72.9393 211.524 72.9669 211.576 72.9973 211.633C73.1095 211.842 73.2596 212.121 73.1258 212.409C73.0022 212.557 72.8918 212.686 72.7883 212.807L72.7852 212.811L72.7851 212.811C72.4676 213.183 72.2152 213.478 71.8466 214.005C66.3603 232.765 65.3025 251.308 69.0631 270.125C74.7996 298.829 89.9451 322.006 110.909 341.763L111.311 342.142C117.601 348.074 123.931 354.042 133.106 355.463C133.323 355.496 133.533 355.533 133.738 355.569C135.202 355.825 136.394 356.034 137.659 354.671C146.598 345.037 152.789 333.766 158.256 321.277C157.152 321.334 156.068 321.395 154.999 321.456L154.997 321.456L154.989 321.457C149.791 321.753 144.97 322.027 140.143 321.575C124.48 320.108 111.306 310.242 108.232 297.591C104.592 282.608 113.451 267.564 130.023 261.333C151.501 253.257 170.749 257.862 187.773 272.614C190.791 275.229 192.407 276.097 195.846 272.962C203.579 265.914 212.061 259.938 223.685 263.015C221.5 252.83 222.995 249.72 232.444 245.259C232.739 245.203 232.793 245.002 232.886 244.659C232.922 244.528 232.963 244.376 233.025 244.204C236.06 242.668 238.836 241.346 241.819 243.261C243.368 244.256 244.195 243.567 244.908 242.208C245.211 241.632 245.503 241.049 245.795 240.466C246.599 238.859 247.405 237.251 248.423 235.794C249.654 234.031 250.595 232.087 251.539 230.138L251.539 230.138C253.253 226.597 254.974 223.04 258.455 220.534C261.365 221.021 261.34 222.955 261.311 225.228L261.31 225.318C260.272 227.219 259.239 229.099 258.211 230.966L258.21 230.968C254.898 236.989 251.654 242.886 248.586 248.991C248.531 249.058 248.418 249.168 248.266 249.316L248.266 249.317C247.412 250.148 245.328 252.178 245.328 254.586C244.76 260.828 236.816 262.531 236.816 262.531C236.109 261.666 234.369 262.873 233.614 263.423C233.55 263.47 233.486 263.517 233.422 263.564C233.34 263.625 233.258 263.686 233.176 263.747C231.806 264.762 230.426 265.785 228.562 265.684C226.071 265.548 226.409 266.926 226.839 268.606C228.557 275.325 225.759 280.738 221.778 285.823C211.086 299.477 196.091 307.037 181.1 314.594L181.025 314.632C180.752 314.77 180.477 314.898 180.203 315.026C178.963 315.606 177.766 316.165 176.963 317.483C176.129 318.854 175.3 320.228 174.471 321.603C166.383 335.012 158.274 348.456 145.223 358.696C152.464 361.842 159.308 362.626 166.076 363.402H166.077L166.456 363.445C174.408 364.358 182.054 362.957 188.329 357.68C191.842 354.725 194.983 351.308 198.109 347.908L198.116 347.9L198.146 347.868L198.176 347.835C198.606 347.368 199.035 346.901 199.465 346.436C207.465 337.781 215.621 329.346 227.595 326.328C232.785 325.02 237.983 324.235 242.2 328.993C246.144 333.443 246.555 338.393 244.616 343.729C243.852 345.83 243.015 347.904 242.092 350.192L242.092 350.192L242.091 350.195L242.089 350.198C241.648 351.291 241.187 352.433 240.705 353.65C243.898 352.434 246.114 350.988 247.944 348.843C249.462 347.064 251.059 345.336 252.655 343.607L252.656 343.607L252.656 343.607C256.078 339.901 259.5 336.197 262.144 332.001C266.271 325.451 271.806 325.397 277.941 325.336C279.472 325.321 281.041 325.306 282.634 325.189C279.317 331.052 275.823 336.602 272.377 342.074C267.746 349.429 263.205 356.642 259.308 364.278C261.429 364.838 263.18 364.778 264.879 363.525C269.282 360.276 273.507 356.859 277.19 352.768C278.899 350.87 280.58 348.944 282.26 347.018L282.261 347.017C287.904 340.55 293.548 334.081 300.271 328.672C303.944 325.716 308.268 323.744 312.775 326.562C316.927 329.157 317.708 333.44 316.825 338.473C317.184 338.999 317.431 339.124 317.994 339C319.298 337.428 320.221 335.684 321.126 333.973C322.389 331.586 323.618 329.263 325.803 327.56C329.602 324.597 334.667 324.324 337.09 327.314C339.91 330.794 337.707 333.177 335.616 335.44L335.616 335.44L335.615 335.441C335.29 335.792 334.968 336.141 334.668 336.49C333.465 337.89 331.811 338.975 330.202 339.937C327.395 341.614 325.173 343.914 323.012 346.277C321.383 348.058 320.259 350.572 321.972 352.397C323.926 354.48 326.662 353.428 328.528 351.639C330.342 349.899 331.994 347.99 333.646 346.081C334.216 345.424 334.785 344.766 335.361 344.115C342.328 336.244 349.91 329.118 360.427 326.437C360.622 326.387 360.817 326.337 361.013 326.286C365.85 325.043 371.043 323.707 374.896 328.983C375.865 330.31 376.67 330.235 378.013 329.003C381.653 325.66 385.844 325.81 390.535 325.977H390.535H390.536H390.536C392.041 326.031 393.597 326.086 395.203 326.029C394.875 326.468 394.547 326.905 394.221 327.34C387.073 336.877 380.592 345.523 375.852 355.764C376.136 356.267 376.465 356.279 377.158 356.161C390.095 346.864 401.412 336.375 411.097 324.162C427.841 303.046 437.905 279.146 438.739 252.156C439.236 236.042 439.225 219.474 428.059 205.741C415.999 215.065 412.484 214.393 407.599 201.855C406.015 202.934 404.656 204.28 403.301 205.623C401.436 207.47 399.577 209.312 397.143 210.445L397.103 210.464C394.303 211.767 391.298 213.167 388.645 210.816C385.981 208.455 385.182 205.252 386.043 201.548C386.845 198.094 388.751 195.347 390.673 192.577L390.673 192.576C391.764 191.004 392.861 189.424 393.763 187.703C393.163 187.228 392.886 187.089 392.264 187.109C389.87 189.221 387.81 191.162 385.775 193.129C380.735 197.999 376.248 203.321 372.361 209.168C369.922 212.836 366.172 212.219 362.842 211.671C362.381 211.595 361.928 211.521 361.487 211.459C360.45 211.314 360.858 210.435 361.351 209.373C361.699 208.624 362.089 207.784 362.045 207.045C361.524 206.651 361.272 206.558 360.659 206.599C359.623 207.282 358.69 207.946 357.797 208.582L357.796 208.583L357.794 208.584C356.927 209.202 356.095 209.794 355.241 210.351C350.471 213.461 346.422 211.992 344.841 206.518C343.857 203.109 344.566 199.89 346.016 196.662C346.212 196.226 346.499 195.811 346.796 195.382C347.653 194.144 348.594 192.786 347.664 190.461C341.663 195.364 336.645 200.735 332.747 206.779C329.054 212.506 324.39 212.114 318.817 211.646L318.814 211.645C318.522 211.621 318.227 211.596 317.93 211.572C320.154 207.708 322.701 204.166 325.211 200.676C329.069 195.312 332.839 190.071 335.205 183.975C330.342 186.421 327.02 190.335 323.71 194.236L323.71 194.237L323.709 194.237L323.709 194.238L323.708 194.238C322.652 195.483 321.596 196.727 320.492 197.921C319.902 198.56 319.316 199.204 318.731 199.849L318.729 199.851L318.728 199.853C314.883 204.086 311.038 208.321 305.748 210.889C300.063 213.649 295.435 211.114 294.89 204.98C294.817 204.159 294.833 203.331 294.852 202.279V202.278V202.276V202.275C294.862 201.715 294.874 201.091 294.874 200.37C288.877 204.546 283.952 204.216 280.117 197.847C279.282 198.877 278.458 199.858 277.655 200.815L277.653 200.816L277.653 200.817L277.652 200.817C275.893 202.913 274.231 204.892 272.762 207.004C270.387 210.418 267.388 212.256 263.236 211.831C262.813 211.788 262.332 211.877 261.851 211.967C260.766 212.169 259.678 212.371 259.239 211.052C258.978 210.267 259.791 209.026 260.457 208.009C260.549 207.869 260.639 207.732 260.722 207.602C261.384 206.566 262.048 205.531 262.713 204.495C266.718 198.247 270.735 191.982 274.561 185.433C274.044 184.953 273.767 184.847 273.132 184.874C269.155 187.679 266.209 191.193 263.294 194.671C262.327 195.823 261.365 196.972 260.369 198.089L260.149 198.336L260.149 198.336C256.212 202.754 252.274 207.173 247.208 210.389C244.474 212.123 241.674 212.795 238.728 210.959C236.114 209.329 234.901 206.997 234.992 203.856C235.001 203.572 235.071 203.269 235.143 202.955L235.143 202.955C235.342 202.099 235.56 201.156 234.607 200.252L234.23 200.704C230.84 204.772 227.586 208.678 222.789 210.828C217.093 213.383 213.267 211.264 212.359 205.008C211.785 201.059 213.038 197.569 215.257 194.41C215.864 193.547 216.49 192.697 217.121 191.841C218.399 190.106 219.698 188.342 220.904 186.376C220.532 185.842 220.29 185.704 219.694 185.725C217.93 187.13 216.516 188.372 215.111 189.626C201.324 201.934 192.719 217.921 184.163 233.859C181.951 237.979 179.212 240.098 174.819 240.383C174.554 240.401 174.267 240.425 173.97 240.451C172.42 240.583 170.587 240.74 169.996 240.011C168.917 238.681 169.903 237.484 170.855 236.328C171.169 235.946 171.48 235.57 171.711 235.194C172.354 234.15 172.997 233.106 173.641 232.062L173.676 232.004L173.677 232.004C179.241 222.973 184.819 213.923 190.261 204.519C189.954 203.817 189.804 203.549 189.263 203.437C188.296 204.234 187.428 205.031 186.592 205.798L186.592 205.798C185.534 206.77 184.529 207.693 183.441 208.506C180.405 210.776 177.142 213.206 173.104 211.344C169.125 209.509 169.185 205.793 169.242 202.178L169.245 202.022L169.248 201.802C169.249 201.703 169.251 201.605 169.252 201.506C169.254 201.328 168.689 201.143 168.84 201.234C168.273 201.71 167.718 202.179 167.168 202.642L167.167 202.643C165.944 203.675 164.753 204.679 163.551 205.668C163.056 206.075 162.565 206.488 162.075 206.902C160.685 208.073 159.295 209.245 157.805 210.27C154.939 212.241 151.159 213.407 149.205 210.127C146.369 205.369 144.265 206.964 141.67 208.931C141.272 209.233 140.862 209.543 140.437 209.841C134.245 214.171 128.837 211.897 126.944 204.481C124.606 195.327 127.26 189.008 137.115 183.124C137.689 182.782 138.266 182.425 138.847 182.067L138.847 182.067L138.847 182.067L138.848 182.067C144.412 178.634 150.326 174.986 157.121 180.78C157.341 180.968 158.133 180.763 158.465 180.498C160.482 178.895 162.706 178.836 165.14 178.771C167.195 178.717 169.399 178.658 171.752 177.662C170.867 178.88 169.991 180.07 169.129 181.242L169.129 181.243L169.122 181.252L169.12 181.254L169.12 181.254C163.39 189.045 158.276 195.996 155.282 204.339C155.876 204.767 156.144 204.893 156.765 204.868C163.735 199.92 168.881 193.509 173.969 187.169L173.969 187.169L173.969 187.169L173.969 187.169C175.362 185.434 176.75 183.704 178.171 182.011C181.5 178.042 184.817 177.997 188.884 177.941L188.919 177.94C191.826 177.9 192.228 178.874 190.676 181.255C187.286 186.455 183.944 191.69 180.739 197.005C180.406 197.558 180.05 198.105 179.693 198.654C178.178 200.98 176.63 203.357 176.608 206.505C179.847 205.766 182.069 204.115 184.11 202.087C195.646 190.631 206.018 178.159 214.653 164.432C217.989 159.129 221.966 159.06 227.485 158.964L227.955 158.955C226.363 161.882 224.672 164.587 223.018 167.233C220.262 171.641 217.61 175.884 215.689 180.714C216.137 181.336 216.465 181.451 217.176 181.407C217.925 181.024 218.663 180.581 219.394 180.142C222.509 178.269 225.498 176.472 228.709 179.782C232.517 183.707 231.067 188.117 228.327 192.173C227.502 193.393 226.67 194.609 225.839 195.825L225.836 195.828C224.75 197.416 223.664 199.003 222.594 200.601C222.402 200.888 222.194 201.17 221.985 201.454L221.985 201.454C221.026 202.756 220.037 204.099 220.367 206.15C223.815 205.114 225.918 202.807 227.951 200.578L228.209 200.295C228.853 199.59 229.498 198.886 230.144 198.181C234.979 192.904 239.822 187.618 244.238 182.003C246.931 178.578 249.87 177.568 253.927 177.875L254.033 177.883C256.849 178.095 258.415 178.213 256.204 181.596C253.861 185.182 251.703 188.888 249.545 192.594L249.545 192.594L249.544 192.594L249.544 192.595L249.544 192.595C248.565 194.276 247.587 195.956 246.591 197.626C246.304 198.106 246.006 198.581 245.706 199.06L245.706 199.06L245.706 199.061L245.706 199.061C244.368 201.196 242.99 203.394 242.4 206.384C247.293 205.192 250.072 202.209 252.824 199.255L252.959 199.109C254.94 196.983 256.9 194.837 258.859 192.691L258.86 192.69L258.86 192.69L258.862 192.688L258.862 192.687C261.864 189.4 264.865 186.113 267.943 182.899C270.702 180.019 273.861 177.044 278.241 178.281C282.611 179.516 283.065 183.622 282.963 188.784C283.781 187.51 284.435 186.26 285.05 185.086C286.472 182.37 287.683 180.058 290.218 178.798C292.814 177.508 295.397 177.268 297.345 179.835C299.227 182.316 297.313 184.201 295.735 185.696C294.168 187.181 292.446 188.5 290.723 189.82C289.896 190.453 289.069 191.086 288.26 191.737C286.309 193.307 285.264 195.853 286.779 197.506C288.512 199.399 290.656 197.414 292.031 195.89C292.885 194.943 293.753 194.005 294.622 193.066L294.622 193.065L294.622 193.065L294.623 193.064C297.607 189.838 300.6 186.603 303.046 183.004C306.899 177.335 311.79 177.231 317.821 178.424C315.825 182.296 313.516 185.917 311.193 189.559L311.193 189.56C307.757 194.949 304.289 200.387 301.757 206.761C307.302 204.726 310.636 201.786 313.659 198.394C315.134 196.74 316.556 195.032 317.978 193.324L317.978 193.323C322.113 188.357 326.249 183.388 331.688 179.732C337.165 176.051 341.109 177.53 342.654 183.407C342.825 184.06 343.09 184.689 343.401 185.426L343.401 185.427L343.402 185.428C343.561 185.805 343.732 186.211 343.908 186.663C344.959 185.81 345.935 184.922 346.892 184.051L346.892 184.051C348.974 182.157 350.965 180.346 353.434 179.158C358.663 176.64 362.274 178.833 362.579 184.692C362.8 188.928 360.575 192.036 358.35 195.144L358.349 195.145C357.954 195.696 357.559 196.248 357.178 196.805C356.746 197.439 356.274 198.051 355.797 198.67C354.165 200.789 352.48 202.976 352.14 206.302C352.639 206.034 353.081 205.826 353.472 205.642C354.186 205.306 354.731 205.049 355.145 204.655C370.41 190.134 383.798 174.167 393.392 155.237C394.555 152.942 393.711 151.933 392.084 150.554C377.738 138.385 362.02 128.287 344.826 120.778C313.708 107.189 281.142 101.304 247.075 102.132C217.421 102.852 189.12 108.605 162.003 120.423C154.388 123.742 146.823 127.22 139.065 132.321C149.29 133.927 152.25 139.495 148.043 147.419C145.418 152.361 141.286 156.049 136.766 159.159C124.166 167.827 110.35 173.446 95.0675 175.276C94.6852 175.322 94.2809 175.325 93.8715 175.328H93.8714H93.8713H93.8713C92.4518 175.338 90.9702 175.348 90.1229 177.152C86.4133 185.053 84.9232 193.291 86.2403 201.948C86.6455 204.612 88.2933 206.866 91.0039 206.763C93.6245 206.663 93.546 204.728 93.4715 202.891V202.891V202.891V202.891C93.4516 202.399 93.4319 201.914 93.4645 201.473C94.1965 191.572 97.8088 183.209 106.328 177.518C111.273 174.214 118.223 173.758 121.779 176.716C126.332 180.503 127.301 185.356 125.275 190.887C121.718 200.593 114.606 206.804 105.206 210.218C100.584 211.896 97.3024 213.306 100.374 218.813C101.361 220.581 100.594 221.81 99.0931 222.504C97.2935 223.337 96.2651 222.107 95.6564 220.582C95.5723 220.372 95.4835 220.159 95.3942 219.946L95.394 219.945L95.3937 219.944C94.9674 218.924 94.5277 217.871 94.5121 216.831C94.4575 213.209 92.4701 212.274 89.2211 211.604C84.8723 210.707 80.4819 209.261 77.317 204.798C75.8529 205.033 75.2839 205.216 74.4931 205.737ZM394.951 170.544C392.485 174.672 390.005 178.822 387.662 183.126C388.192 183.511 388.475 183.548 389.051 183.288C390.175 182.475 391.195 181.785 392.165 181.128C392.775 180.716 393.365 180.317 393.949 179.908C396.888 177.855 399.945 177.256 402.716 179.919C405.351 182.452 405.17 185.501 403.821 188.788C402.415 192.213 400.293 195.136 398.166 198.067C397.644 198.786 397.121 199.505 396.609 200.233C396.382 200.555 396.134 200.871 395.882 201.19C394.813 202.547 393.69 203.973 393.93 206.296C394.372 206.097 394.771 205.936 395.134 205.79L395.134 205.79C395.822 205.514 396.38 205.289 396.857 204.95C401.024 201.984 404.317 198.133 407.611 194.282C410.941 190.389 414.272 186.494 418.508 183.508C419.852 182.561 419.148 181.648 418.478 180.778L418.477 180.777C418.319 180.572 418.163 180.369 418.036 180.169C414.294 174.274 409.811 168.952 405.329 163.63C404.953 163.183 404.576 162.736 404.2 162.289C402.584 160.366 401.329 159.654 399.679 162.527C398.135 165.214 396.546 167.874 394.951 170.544ZM162.55 373.053C178.735 374.349 190.459 366.722 200.361 355.058C201.647 356.378 201.621 357.672 201.597 358.869C201.588 359.334 201.579 359.785 201.648 360.217C203.285 370.486 210.839 374.872 220.627 371.192C220.762 371.141 220.906 371.095 221.05 371.05C221.468 370.918 221.894 370.783 222.159 370.503C226.443 365.976 232.001 363.898 237.632 361.795C241.651 360.293 245.707 358.777 249.362 356.346C249.975 356.277 250.229 356.365 250.664 356.815C250.855 357.931 250.924 358.691 250.868 359.441C250.519 364.115 250.603 368.847 255.353 371.327C260.06 373.784 264.492 371.959 268.565 369.155C277.139 363.252 283.787 355.445 290.431 347.642L290.432 347.641C291.972 345.832 293.512 344.023 295.076 342.238C298.496 338.335 302.224 334.967 306.631 332.462L307.993 333.744L282.44 372.723C283.902 372.634 285.255 372.564 286.533 372.498H286.533C289.255 372.358 291.638 372.235 294.006 371.975C297.062 371.64 299.392 370.284 301.35 367.548C305.035 362.401 308.887 357.296 313.688 352.915C318.413 360.511 322.183 362.258 329.036 358.694C332.787 356.743 333.178 358.678 333.571 360.623C333.64 360.966 333.709 361.309 333.797 361.631C336.145 370.244 337.721 371.713 346.303 372.291C346.816 372.584 346.888 372.803 346.767 373.311C325.62 382.813 303.782 389.111 281.069 391.645C244.475 395.727 208.595 392.229 173.847 379.457C170.316 378.159 166.824 376.753 162.999 375.14C162.327 374.434 162.177 373.929 162.55 373.053ZM127.803 269.813C112.043 277.565 112.043 298.093 125.209 304.658C137.163 312.297 149.916 311.79 162.823 310.274C165.404 309.971 166.618 308.125 167.875 306.2C168.354 305.465 168.831 304.729 169.309 303.993C173.866 296.967 178.437 289.921 184.538 284.126C187.707 281.116 186.245 279.344 183.847 277.473C167.947 265.072 147.618 260.066 127.803 269.813Z" fill="#E6E6E6"/>
<path d="M45.3519 314.37C53.3106 329.464 62.1565 343.402 73.245 355.947C97.7122 383.628 128.077 402.298 162.396 414.994C187.458 424.266 213.397 429.055 240.104 430.205C302.175 432.878 358.887 417.536 408.121 378.963C442.754 351.83 465.639 316.831 471.908 272.531C475.971 243.821 471.032 216.248 458.546 190.061C457.167 187.17 455.714 184.311 454.21 181.482C453.72 180.561 453.163 179.286 451.375 180.59C450.677 180.365 450.311 179.979 449.598 179.388C445.35 168.435 437.824 160.108 430.39 151.869C397.828 115.785 356.643 94.8337 309.748 84.4277C296.131 81.406 282.222 80.0325 268.246 78.9771C237.894 76.685 208.299 80.6908 179.211 88.6655C153.146 95.8113 129.021 107.424 106.955 123.158C104.835 124.67 102.895 126.648 99.575 126.367C98.5681 125.797 97.9618 125.421 96.9875 124.995C106.87 115.268 119.023 108.378 131.349 101.902C156.24 88.8244 182.7 80.3425 210.522 76.1825C236.34 72.3224 262.121 71.9339 288.109 75.2353C320.501 79.3501 351.093 88.7835 379.487 104.689C419.342 127.014 450.61 157.699 466.861 201.249C484.189 247.683 478.895 292.465 452.724 334.245C424.925 378.623 383.748 405.688 334.638 421.529C312.003 428.829 288.765 432.617 264.92 433.695C215.344 435.935 168.637 425.908 125.312 401.774C89.0114 381.553 60.4003 353.546 42.5703 314.989C43.2495 313.91 44.0833 313.789 45.3519 314.37Z" fill="#E6E6E6"/>
<path d="M258.094 220.857C259.88 219.62 262.088 218.049 263.581 219.644C264.928 221.082 262.854 222.845 261.702 224.653C259.1 224.758 258.108 223.447 258.094 220.857Z" fill="#E6E6E6"/>
<path d="M78.0566 142.731C78.3559 139.37 81.103 138.534 82.8762 136.533C83.644 136.854 84.0323 137.288 84.5723 138.136C82.4309 140.078 81.9922 144.278 78.0566 142.731Z" fill="#E6E6E6"/>
<path d="M75.8457 144.17C75.9672 143.522 76.7101 142.729 77.8561 142.056C78.2592 142.177 78.3426 142.37 78.3897 142.403C77.7803 142.966 77.1237 143.495 75.8457 144.17Z" fill="#E6E6E6"/>
<path d="M290.435 296.088C292.582 296.791 293.575 298.127 294.186 299.741C295.792 303.984 293.127 309.324 288.613 310.431C284.725 311.384 282.057 309.678 281.078 305.761C279.965 301.305 282.739 296.992 287.22 296.093C288.122 295.912 289.081 296.02 290.435 296.088Z" fill="#E6E6E6"/>
<path d="M317.348 160.231C319.927 156.873 322.644 154.903 325.843 158.584C328.619 161.779 326.765 164.53 324.16 166.796C322.811 167.97 321.135 168.321 319.456 167.356C316.725 165.788 316.297 163.392 317.348 160.231Z" fill="#E6E6E6"/>
<path d="M193.399 157.945C196.166 156.521 198.505 155.97 200.342 158.527C201.831 160.601 201.732 162.844 200.214 164.837C198.369 167.261 196.045 169.06 193.026 166.815C189.356 164.086 190.417 161.062 193.399 157.945Z" fill="#E6E6E6"/>
<path d="M262.178 167.78C258.953 167.839 257.205 166.534 256.755 163.679C256.278 160.653 257.811 158.604 260.234 157.263C261.963 156.306 263.873 156.378 265.34 158.03C267.403 160.351 267.005 162.9 265.573 165.249C264.945 166.281 263.609 166.881 262.178 167.78Z" fill="#E6E6E6"/>
<path d="M75.3611 211.342C75.3648 211.347 75.6465 210.863 75.6465 210.863C75.6465 210.863 75.6212 211.22 75.4844 211.275C75.3475 211.329 75.3574 211.337 75.3611 211.342Z" fill="#030303"/>
<path fill-rule="evenodd" clip-rule="evenodd" d="M58.278 340.84H56.8108C55.2131 338.457 53.6702 336.022 52.184 333.534C51.6586 333.752 51.4402 333.738 52.0281 333.272C48.0637 326.608 44.5045 319.562 41.3832 312.11C33.2797 292.764 29.2363 273.554 29.125 254.586L32.8029 254.586C32.6798 278.497 38.7489 301.327 50.1339 322.961C51.0456 324.694 52.0789 326.349 53.1133 328.007C53.7716 329.061 54.4302 330.117 55.0582 331.193C55.394 331.769 53.3589 333.016 52.2947 333.486C53.1665 334.347 55.7697 337.642 58.278 340.84Z" fill="#E6E6E6"/>
</svg>
